<svg version="1.1" viewBox="0.0 0.0 960.0 540.0" fill="none" stroke="none" stroke-linecap="square" stroke-miterlimit="10" xmlns:xlink="http://www.w3.org/1999/xlink" xmlns="http://www.w3.org/2000/svg"><clipPath id="p.0"><path d="m0 0l960.0 0l0 540.0l-960.0 0l0 -540.0z" clip-rule="nonzero"/></clipPath><g clip-path="url(#p.0)"><path fill="#ffffff" d="m0 0l960.0 0l0 540.0l-960.0 0z" fill-rule="evenodd"/><path fill="#eeeeee" d="m137.03674 157.55643l567.937 0l0 300.47244l-567.937 0z" fill-rule="evenodd"/><path stroke="#595959" stroke-width="1.0" stroke-linejoin="round" stroke-linecap="butt" stroke-dasharray="1.0,3.0" d="m137.03674 157.55643l567.937 0l0 300.47244l-567.937 0z" fill-rule="evenodd"/><path fill="#000000" d="m150.443 441.43823l-1.90625 1.9375l0 2.453125l-0.984375 0l0 -9.328125l0.984375 0l0 5.640625l5.484375 -5.640625l1.125 0l-4.03125 4.21875l4.3125 5.109375l-1.171875 0l-3.8125 -4.390625zm12.457306 -2.625l0 7.015625l-0.90625 0l0 -1.28125q-0.375 0.640625 -1.03125 1.0q-0.65625 0.34375 -1.484375 0.34375q-1.375 0 -2.171875 -0.765625q-0.796875 -0.765625 -0.796875 -2.25l0 -4.0625l0.953125 0l0 3.984375q0 1.09375 0.546875 1.671875q0.546875 0.578125 1.5625 0.578125q1.09375 0 1.734375 -0.671875q0.640625 -0.671875 0.640625 -1.875l0 -3.6875l0.953125 0zm6.2666626 -0.046875q0.984375 0 1.78125 0.453125q0.796875 0.4375 1.25 1.25q0.453125 0.8125 0.453125 1.859375q0 1.03125 -0.453125 1.84375q-0.453125 0.8125 -1.25 1.265625q-0.796875 0.453125 -1.78125 0.453125q-0.890625 0 -1.59375 -0.375q-0.6875 -0.375 -1.125 -1.078125l0 1.390625l-0.90625 0l0 -9.890625l0.953125 0l0 4.21875q0.4375 -0.6875 1.125 -1.03125q0.6875 -0.359375 1.546875 -0.359375zm-0.078125 6.296875q0.734375 0 1.328125 -0.34375q0.609375 -0.34375 0.953125 -0.96875q0.34375 -0.625 0.34375 -1.421875q0 -0.8125 -0.34375 -1.4375q-0.34375 -0.625 -0.953125 -0.953125q-0.59375 -0.34375 -1.328125 -0.34375q-0.734375 0 -1.328125 0.34375q-0.59375 0.328125 -0.9375 0.953125q-0.34375 0.625 -0.34375 1.4375q0 0.796875 0.34375 1.421875q0.34375 0.625 0.9375 0.96875q0.59375 0.34375 1.328125 0.34375zm11.598938 -2.453125l-5.859375 0q0.078125 1.09375 0.828125 1.78125q0.765625 0.671875 1.921875 0.671875q0.65625 0 1.203125 -0.234375q0.546875 -0.234375 0.953125 -0.6875l0.53125 0.609375q-0.46875 0.5625 -1.171875 0.859375q-0.703125 0.28125 -1.53125 0.28125q-1.078125 0 -1.921875 -0.453125q-0.828125 -0.46875 -1.296875 -1.28125q-0.46875 -0.8125 -0.46875 -1.828125q0 -1.03125 0.4375 -1.84375q0.453125 -0.8125 1.234375 -1.265625q0.78125 -0.453125 1.75 -0.453125q0.984375 0 1.75 0.453125q0.78125 0.453125 1.21875 1.265625q0.4375 0.796875 0.4375 1.84375l-0.015625 0.28125zm-3.390625 -3.03125q-1.0 0 -1.6875 0.65625q-0.6875 0.640625 -0.78125 1.671875l4.96875 0q-0.09375 -1.03125 -0.78125 -1.671875q-0.6875 -0.65625 -1.71875 -0.65625zm6.2376556 0.609375q0.34375 -0.703125 1.0 -1.0625q0.65625 -0.359375 1.625 -0.359375l0 0.921875l-0.21875 -0.015625q-1.109375 0 -1.734375 0.6875q-0.625 0.671875 -0.625 1.890625l0 3.578125l-0.953125 0l0 -7.015625l0.90625 0l0 1.375zm7.9097595 -1.421875q1.3125 0 2.09375 0.765625q0.78125 0.765625 0.78125 2.234375l0 4.0625l-0.9375 0l0 -3.96875q0 -1.09375 -0.546875 -1.65625q-0.546875 -0.578125 -1.5625 -0.578125q-1.140625 0 -1.796875 0.671875q-0.65625 0.671875 -0.65625 1.859375l0 3.671875l-0.953125 0l0 -7.015625l0.90625 0l0 1.296875q0.390625 -0.640625 1.078125 -0.984375q0.6875 -0.359375 1.59375 -0.359375zm11.581024 3.84375l-5.859375 0q0.078125 1.09375 0.828125 1.78125q0.765625 0.671875 1.921875 0.671875q0.65625 0 1.203125 -0.234375q0.546875 -0.234375 0.953125 -0.6875l0.53125 0.609375q-0.46875 0.5625 -1.171875 0.859375q-0.703125 0.28125 -1.53125 0.28125q-1.078125 0 -1.921875 -0.453125q-0.828125 -0.46875 -1.296875 -1.28125q-0.46875 -0.8125 -0.46875 -1.828125q0 -1.03125 0.4375 -1.84375q0.453125 -0.8125 1.234375 -1.265625q0.78125 -0.453125 1.75 -0.453125q0.984375 0 1.75 0.453125q0.78125 0.453125 1.21875 1.265625q0.4375 0.796875 0.4375 1.84375l-0.015625 0.28125zm-3.390625 -3.03125q-1.0 0 -1.6875 0.65625q-0.6875 0.640625 -0.78125 1.671875l4.96875 0q-0.09375 -1.03125 -0.78125 -1.671875q-0.6875 -0.65625 -1.71875 -0.65625zm9.034531 5.828125q-0.265625 0.234375 -0.671875 0.359375q-0.390625 0.125 -0.8125 0.125q-0.984375 0 -1.515625 -0.53125q-0.53125 -0.53125 -0.53125 -1.5l0 -4.234375l-1.25 0l0 -0.8125l1.25 0l0 -1.53125l0.9375 0l0 1.53125l2.140625 0l0 0.8125l-2.140625 0l0 4.171875q0 0.625 0.3125 0.953125q0.3125 0.328125 0.90625 0.328125q0.296875 0 0.5625 -0.09375q0.28125 -0.09375 0.46875 -0.265625l0.34375 0.6875zm7.5641174 -2.796875l-5.859375 0q0.078125 1.09375 0.828125 1.78125q0.765625 0.671875 1.921875 0.671875q0.65625 0 1.203125 -0.234375q0.546875 -0.234375 0.953125 -0.6875l0.53125 0.609375q-0.46875 0.5625 -1.171875 0.859375q-0.703125 0.28125 -1.53125 0.28125q-1.078125 0 -1.921875 -0.453125q-0.828125 -0.46875 -1.296875 -1.28125q-0.46875 -0.8125 -0.46875 -1.828125q0 -1.03125 0.4375 -1.84375q0.453125 -0.8125 1.234375 -1.265625q0.78125 -0.453125 1.75 -0.453125q0.984375 0 1.75 0.453125q0.78125 0.453125 1.21875 1.265625q0.4375 0.796875 0.4375 1.84375l-0.015625 0.28125zm-3.390625 -3.03125q-1.0 0 -1.6875 0.65625q-0.6875 0.640625 -0.78125 1.671875l4.96875 0q-0.09375 -1.03125 -0.78125 -1.671875q-0.6875 -0.65625 -1.71875 -0.65625zm7.2220306 6.3125q-0.859375 0 -1.640625 -0.234375q-0.78125 -0.25 -1.21875 -0.625l0.421875 -0.75q0.453125 0.34375 1.109375 0.5625q0.671875 0.21875 1.390625 0.21875q0.953125 0 1.40625 -0.296875q0.46875 -0.296875 0.46875 -0.84375q0 -0.390625 -0.25 -0.609375q-0.25 -0.21875 -0.640625 -0.328125q-0.390625 -0.109375 -1.03125 -0.21875q-0.84375 -0.15625 -1.375 -0.328125q-0.515625 -0.171875 -0.890625 -0.5625q-0.359375 -0.40625 -0.359375 -1.109375q0 -0.875 0.734375 -1.4375q0.734375 -0.5625 2.046875 -0.5625q0.671875 0 1.34375 0.1875q0.6875 0.171875 1.125 0.46875l-0.40625 0.75q-0.859375 -0.59375 -2.0625 -0.59375q-0.90625 0 -1.375 0.328125q-0.453125 0.3125 -0.453125 0.828125q0 0.40625 0.25 0.640625q0.265625 0.234375 0.65625 0.359375q0.390625 0.109375 1.0625 0.234375q0.84375 0.15625 1.34375 0.3125q0.515625 0.15625 0.875 0.546875q0.359375 0.390625 0.359375 1.0625q0 0.921875 -0.765625 1.46875q-0.765625 0.53125 -2.125 0.53125zm12.384384 0.015625q-1.390625 0 -2.515625 -0.609375q-1.109375 -0.609375 -1.75 -1.6875q-0.625 -1.09375 -0.625 -2.453125q0 -1.34375 0.625 -2.421875q0.640625 -1.09375 1.765625 -1.703125q1.125 -0.609375 2.5 -0.609375q1.046875 0 1.921875 0.34375q0.890625 0.34375 1.5 1.015625l-0.625 0.625q-1.09375 -1.109375 -2.765625 -1.109375q-1.109375 0 -2.015625 0.515625q-0.90625 0.5 -1.421875 1.390625q-0.5 0.875 -0.5 1.953125q0 1.09375 0.5 1.984375q0.515625 0.875 1.421875 1.390625q0.90625 0.5 2.015625 0.5q1.6875 0 2.765625 -1.125l0.625 0.625q-0.609375 0.671875 -1.5 1.03125q-0.890625 0.34375 -1.921875 0.34375zm5.3172607 -9.96875l0.953125 0l0 9.890625l-0.953125 0l0 -9.890625zm9.913376 2.875l0 7.015625l-0.90625 0l0 -1.28125q-0.375 0.640625 -1.03125 1.0q-0.65625 0.34375 -1.484375 0.34375q-1.375 0 -2.171875 -0.765625q-0.796875 -0.765625 -0.796875 -2.25l0 -4.0625l0.953125 0l0 3.984375q0 1.09375 0.546875 1.671875q0.546875 0.578125 1.5625 0.578125q1.09375 0 1.734375 -0.671875q0.640625 -0.671875 0.640625 -1.875l0 -3.6875l0.953125 0zm4.5322876 7.078125q-0.859375 0 -1.640625 -0.234375q-0.78125 -0.25 -1.21875 -0.625l0.421875 -0.75q0.453125 0.34375 1.109375 0.5625q0.671875 0.21875 1.390625 0.21875q0.953125 0 1.40625 -0.296875q0.46875 -0.296875 0.46875 -0.84375q0 -0.390625 -0.25 -0.609375q-0.25 -0.21875 -0.640625 -0.328125q-0.390625 -0.109375 -1.03125 -0.21875q-0.84375 -0.15625 -1.375 -0.328125q-0.515625 -0.171875 -0.890625 -0.5625q-0.359375 -0.40625 -0.359375 -1.109375q0 -0.875 0.734375 -1.4375q0.734375 -0.5625 2.046875 -0.5625q0.671875 0 1.34375 0.1875q0.6875 0.171875 1.125 0.46875l-0.40625 0.75q-0.859375 -0.59375 -2.0625 -0.59375q-0.90625 0 -1.375 0.328125q-0.453125 0.3125 -0.453125 0.828125q0 0.40625 0.25 0.640625q0.265625 0.234375 0.65625 0.359375q0.390625 0.109375 1.0625 0.234375q0.84375 0.15625 1.34375 0.3125q0.515625 0.15625 0.875 0.546875q0.359375 0.390625 0.359375 1.0625q0 0.921875 -0.765625 1.46875q-0.765625 0.53125 -2.125 0.53125zm8.329941 -0.484375q-0.265625 0.234375 -0.671875 0.359375q-0.390625 0.125 -0.8125 0.125q-0.984375 0 -1.515625 -0.53125q-0.53125 -0.53125 -0.53125 -1.5l0 -4.234375l-1.2500153 0l0 -0.8125l1.2500153 0l0 -1.53125l0.9375 0l0 1.53125l2.140625 0l0 0.8125l-2.140625 0l0 4.171875q0 0.625 0.3125 0.953125q0.3125 0.328125 0.90625 0.328125q0.296875 0 0.5625 -0.09375q0.28125 -0.09375 0.46875 -0.265625l0.34375 0.6875zm7.5641174 -2.796875l-5.859375 0q0.078125 1.09375 0.828125 1.78125q0.765625 0.671875 1.921875 0.671875q0.65625 0 1.203125 -0.234375q0.546875 -0.234375 0.953125 -0.6875l0.53125 0.609375q-0.46875 0.5625 -1.171875 0.859375q-0.703125 0.28125 -1.53125 0.28125q-1.078125 0 -1.921875 -0.453125q-0.828125 -0.46875 -1.296875 -1.28125q-0.46875 -0.8125 -0.46875 -1.828125q0 -1.03125 0.4375 -1.84375q0.453125 -0.8125 1.234375 -1.265625q0.78125 -0.453125 1.75 -0.453125q0.984375 0 1.75 0.453125q0.78125 0.453125 1.21875 1.265625q0.4375 0.796875 0.4375 1.84375l-0.015625 0.28125zm-3.390625 -3.03125q-1.0 0 -1.6875 0.65625q-0.6875 0.640625 -0.78125 1.671875l4.96875 0q-0.09375 -1.03125 -0.78125 -1.671875q-0.6875 -0.65625 -1.71875 -0.65625zm6.2376404 0.609375q0.34375 -0.703125 1.0 -1.0625q0.65625 -0.359375 1.625 -0.359375l0 0.921875l-0.21875 -0.015625q-1.109375 0 -1.734375 0.6875q-0.625 0.671875 -0.625 1.890625l0 3.578125l-0.953125 0l0 -7.015625l0.90625 0l0 1.375z" fill-rule="nonzero"/><path fill="#eeeeee" d="m164.88452 188.33595l240.37796 0l0 218.01576l-240.37796 0z" fill-rule="evenodd"/><path stroke="#595959" stroke-width="1.0" stroke-linejoin="round" stroke-linecap="butt" stroke-dasharray="4.0,3.0" d="m164.88452 188.33595l240.37796 0l0 218.01576l-240.37796 0z" fill-rule="evenodd"/><path fill="#000000" d="m183.19702 368.82358l0 9.328125l-0.8125 0l-6.0 -7.578125l0 7.578125l-0.984375 0l0 -9.328125l0.8125 0l6.015625 7.5625l0 -7.5625l0.96875 0zm5.710724 9.390625q-1.015625 0 -1.828125 -0.453125q-0.8125 -0.46875 -1.28125 -1.28125q-0.46875 -0.8125 -0.46875 -1.828125q0 -1.03125 0.46875 -1.84375q0.46875 -0.8125 1.28125 -1.265625q0.8125 -0.453125 1.828125 -0.453125q1.015625 0 1.828125 0.453125q0.8125 0.453125 1.265625 1.265625q0.46875 0.8125 0.46875 1.84375q0 1.015625 -0.46875 1.828125q-0.453125 0.8125 -1.265625 1.28125q-0.8125 0.453125 -1.828125 0.453125zm0 -0.828125q0.75 0 1.34375 -0.34375q0.59375 -0.34375 0.921875 -0.96875q0.328125 -0.625 0.328125 -1.421875q0 -0.8125 -0.328125 -1.4375q-0.328125 -0.625 -0.921875 -0.953125q-0.59375 -0.34375 -1.34375 -0.34375q-0.75 0 -1.34375 0.34375q-0.59375 0.328125 -0.9375 0.953125q-0.328125 0.625 -0.328125 1.4375q0 0.796875 0.328125 1.421875q0.34375 0.625 0.9375 0.96875q0.59375 0.34375 1.34375 0.34375zm11.887955 -9.125l0 9.890625l-0.90625 0l0 -1.390625q-0.421875 0.703125 -1.125 1.078125q-0.703125 0.375 -1.578125 0.375q-0.984375 0 -1.796875 -0.453125q-0.796875 -0.453125 -1.25 -1.265625q-0.453125 -0.8125 -0.453125 -1.84375q0 -1.046875 0.453125 -1.859375q0.453125 -0.8125 1.25 -1.25q0.8125 -0.453125 1.796875 -0.453125q0.84375 0 1.53125 0.359375q0.6875 0.34375 1.125 1.03125l0 -4.21875l0.953125 0zm-3.53125 9.125q0.734375 0 1.328125 -0.34375q0.59375 -0.34375 0.921875 -0.96875q0.34375 -0.625 0.34375 -1.421875q0 -0.8125 -0.34375 -1.4375q-0.328125 -0.625 -0.921875 -0.953125q-0.59375 -0.34375 -1.328125 -0.34375q-0.75 0 -1.34375 0.34375q-0.59375 0.328125 -0.9375 0.953125q-0.328125 0.625 -0.328125 1.4375q0 0.796875 0.328125 1.421875q0.34375 0.625 0.9375 0.96875q0.59375 0.34375 1.34375 0.34375zm12.270813 -2.453125l-5.859375 0q0.078125 1.09375 0.828125 1.78125q0.765625 0.671875 1.921875 0.671875q0.65625 0 1.203125 -0.234375q0.546875 -0.234375 0.953125 -0.6875l0.53125 0.609375q-0.46875 0.5625 -1.171875 0.859375q-0.703125 0.28125 -1.53125 0.28125q-1.078125 0 -1.921875 -0.453125q-0.828125 -0.46875 -1.296875 -1.28125q-0.46875 -0.8125 -0.46875 -1.828125q0 -1.03125 0.4375 -1.84375q0.453125 -0.8125 1.234375 -1.265625q0.78125 -0.453125 1.75 -0.453125q0.984375 0 1.75 0.453125q0.78125 0.453125 1.21875 1.265625q0.4375 0.796875 0.4375 1.84375l-0.015625 0.28125zm-3.390625 -3.03125q-1.0 0 -1.6875 0.65625q-0.6875 0.640625 -0.78125 1.671875l4.96875 0q-0.09375 -1.03125 -0.78125 -1.671875q-0.6875 -0.65625 -1.71875 -0.65625zm4.949112 2.21875l3.5 0l0 0.828125l-3.5 0l0 -0.828125zm9.310074 -5.296875q1.78125 0 2.796875 0.859375q1.015625 0.84375 1.015625 2.34375q0 1.484375 -1.015625 2.328125q-1.015625 0.84375 -2.796875 0.84375l-2.515625 0l0 2.953125l-0.984375 0l0 -9.328125l3.5 0zm-0.03125 5.515625q1.390625 0 2.125 -0.609375q0.734375 -0.609375 0.734375 -1.703125q0 -1.140625 -0.734375 -1.75q-0.734375 -0.609375 -2.125 -0.609375l-2.484375 0l0 4.671875l2.484375 0zm8.59935 3.875q-1.015625 0 -1.828125 -0.453125q-0.8125 -0.46875 -1.28125 -1.28125q-0.46875 -0.8125 -0.46875 -1.828125q0 -1.03125 0.46875 -1.84375q0.46875 -0.8125 1.28125 -1.265625q0.8125 -0.453125 1.828125 -0.453125q1.015625 0 1.828125 0.453125q0.8125 0.453125 1.265625 1.265625q0.46875 0.8125 0.46875 1.84375q0 1.015625 -0.46875 1.828125q-0.453125 0.8125 -1.265625 1.28125q-0.8125 0.453125 -1.828125 0.453125zm0 -0.828125q0.75 0 1.34375 -0.34375q0.59375 -0.34375 0.921875 -0.96875q0.328125 -0.625 0.328125 -1.421875q0 -0.8125 -0.328125 -1.4375q-0.328125 -0.625 -0.921875 -0.953125q-0.59375 -0.34375 -1.34375 -0.34375q-0.75 0 -1.34375 0.34375q-0.59375 0.328125 -0.9375 0.953125q-0.328125 0.625 -0.328125 1.4375q0 0.796875 0.328125 1.421875q0.34375 0.625 0.9375 0.96875q0.59375 0.34375 1.34375 0.34375zm8.356705 0.828125q-1.015625 0 -1.828125 -0.453125q-0.8125 -0.46875 -1.28125 -1.28125q-0.46875 -0.8125 -0.46875 -1.828125q0 -1.03125 0.46875 -1.84375q0.46875 -0.8125 1.28125 -1.265625q0.8125 -0.453125 1.828125 -0.453125q1.015625 0 1.828125 0.453125q0.8125 0.453125 1.265625 1.265625q0.46875 0.8125 0.46875 1.84375q0 1.015625 -0.46875 1.828125q-0.453125 0.8125 -1.265625 1.28125q-0.8125 0.453125 -1.828125 0.453125zm0 -0.828125q0.75 0 1.34375 -0.34375q0.59375 -0.34375 0.921875 -0.96875q0.328125 -0.625 0.328125 -1.421875q0 -0.8125 -0.328125 -1.4375q-0.328125 -0.625 -0.921875 -0.953125q-0.59375 -0.34375 -1.34375 -0.34375q-0.75 0 -1.34375 0.34375q-0.59375 0.328125 -0.9375 0.953125q-0.328125 0.625 -0.328125 1.4375q0 0.796875 0.328125 1.421875q0.34375 0.625 0.9375 0.96875q0.59375 0.34375 1.34375 0.34375zm5.4817047 -9.125l0.953125 0l0 9.890625l-0.953125 0l0 -9.890625zm9.405334 0.734375q-0.609375 0 -0.921875 0.34375q-0.3125 0.328125 -0.3125 0.96875l0 0.828125l2.15625 0l0 0.8125l-2.140625 0l0 6.203125l-0.9375 0l0 -6.203125l-1.25 0l0 -0.8125l1.25 0l0 -0.859375q0 -0.96875 0.546875 -1.515625q0.546875 -0.5625 1.5625 -0.5625q0.40625 0 0.78125 0.109375q0.375 0.109375 0.625 0.328125l-0.328125 0.703125q-0.40625 -0.34375 -1.03125 -0.34375zm4.945099 9.21875q-1.015625 0 -1.828125 -0.453125q-0.8125 -0.46875 -1.28125 -1.28125q-0.46875 -0.8125 -0.46875 -1.828125q0 -1.03125 0.46875 -1.84375q0.46875 -0.8125 1.28125 -1.265625q0.8125 -0.453125 1.828125 -0.453125q1.015625 0 1.828125 0.453125q0.8125 0.453125 1.265625 1.265625q0.46875 0.8125 0.46875 1.84375q0 1.015625 -0.46875 1.828125q-0.453125 0.8125 -1.265625 1.28125q-0.8125 0.453125 -1.828125 0.453125zm0 -0.828125q0.75 0 1.34375 -0.34375q0.59375 -0.34375 0.921875 -0.96875q0.328125 -0.625 0.328125 -1.421875q0 -0.8125 -0.328125 -1.4375q-0.328125 -0.625 -0.921875 -0.953125q-0.59375 -0.34375 -1.34375 -0.34375q-0.75 0 -1.34375 0.34375q-0.59375 0.328125 -0.9375 0.953125q-0.328125 0.625 -0.328125 1.4375q0 0.796875 0.328125 1.421875q0.34375 0.625 0.9375 0.96875q0.59375 0.34375 1.34375 0.34375zm6.3879395 -4.875q0.34375 -0.703125 1.0 -1.0625q0.65625 -0.359375 1.625 -0.359375l0 0.921875l-0.21875 -0.015625q-1.109375 0 -1.734375 0.6875q-0.625 0.671875 -0.625 1.890625l0 3.578125l-0.953125 0l0 -7.015625l0.90625 0l0 1.375z" fill-rule="nonzero"/><path fill="#000000" d="m177.97827 394.22983q-1.046875 0 -2.0 -0.328125q-0.953125 -0.34375 -1.46875 -0.890625l0.390625 -0.75q0.5 0.5 1.34375 0.8125q0.84375 0.3125 1.734375 0.3125q1.25 0 1.875 -0.453125q0.625 -0.453125 0.625 -1.1875q0 -0.5625 -0.34375 -0.890625q-0.328125 -0.34375 -0.828125 -0.515625q-0.484375 -0.1875 -1.375 -0.40625q-1.046875 -0.265625 -1.671875 -0.5q-0.625 -0.25 -1.078125 -0.75q-0.4375 -0.515625 -0.4375 -1.375q0 -0.71875 0.359375 -1.296875q0.375 -0.578125 1.140625 -0.921875q0.78125 -0.34375 1.9375 -0.34375q0.796875 0 1.5625 0.21875q0.765625 0.21875 1.328125 0.609375l-0.34375 0.78125q-0.578125 -0.390625 -1.25 -0.578125q-0.65625 -0.1875 -1.296875 -0.1875q-1.234375 0 -1.859375 0.46875q-0.609375 0.46875 -0.609375 1.21875q0 0.5625 0.328125 0.90625q0.34375 0.328125 0.859375 0.515625q0.515625 0.171875 1.375 0.390625q1.03125 0.25 1.65625 0.5q0.640625 0.25 1.078125 0.75q0.453125 0.5 0.453125 1.34375q0 0.703125 -0.390625 1.296875q-0.375 0.578125 -1.171875 0.921875q-0.78125 0.328125 -1.921875 0.328125zm14.165512 -7.140625q1.3125 0 2.0625 0.765625q0.765625 0.75 0.765625 2.234375l0 4.0625l-0.953125 0l0 -3.96875q0 -1.09375 -0.53125 -1.65625q-0.515625 -0.578125 -1.484375 -0.578125q-1.078125 0 -1.71875 0.671875q-0.625 0.671875 -0.625 1.859375l0 3.671875l-0.9375 0l0 -3.96875q0 -1.09375 -0.53125 -1.65625q-0.53125 -0.578125 -1.5 -0.578125q-1.078125 0 -1.71875 0.671875q-0.625 0.671875 -0.625 1.859375l0 3.671875l-0.953125 0l0 -7.015625l0.90625 0l0 1.28125q0.375 -0.640625 1.046875 -0.984375q0.671875 -0.34375 1.53125 -0.34375q0.875 0 1.515625 0.375q0.65625 0.375 0.984375 1.109375q0.375 -0.703125 1.09375 -1.09375q0.734375 -0.390625 1.671875 -0.390625zm7.844208 0q1.375 0 2.109375 0.6875q0.734375 0.6875 0.734375 2.03125l0 4.34375l-0.90625 0l0 -1.09375q-0.3125 0.546875 -0.9375 0.859375q-0.625 0.296875 -1.46875 0.296875q-1.171875 0 -1.875 -0.546875q-0.6875 -0.5625 -0.6875 -1.484375q0 -0.890625 0.640625 -1.4375q0.65625 -0.546875 2.0625 -0.546875l2.234375 0l0 -0.4375q0 -0.90625 -0.515625 -1.375q-0.5 -0.46875 -1.484375 -0.46875q-0.65625 0 -1.28125 0.21875q-0.609375 0.21875 -1.046875 0.609375l-0.421875 -0.71875q0.53125 -0.453125 1.28125 -0.6875q0.75 -0.25 1.5625 -0.25zm-0.328125 6.375q0.796875 0 1.375 -0.359375q0.578125 -0.359375 0.859375 -1.0625l0 -1.140625l-2.203125 0q-1.796875 0 -1.796875 1.25q0 0.609375 0.453125 0.96875q0.46875 0.34375 1.3125 0.34375zm5.738571 -9.203125l0.953125 0l0 9.890625l-0.953125 0l0 -9.890625zm3.5852509 0l0.953125 0l0 9.890625l-0.953125 0l0 -9.890625zm7.2803345 0.5625l0.984375 0l0 9.328125l-0.984375 0l0 -9.328125zm7.4000854 2.265625q1.3125 0 2.09375 0.765625q0.78125 0.765625 0.78125 2.234375l0 4.0625l-0.9375 0l0 -3.96875q0 -1.09375 -0.546875 -1.65625q-0.546875 -0.578125 -1.5625 -0.578125q-1.140625 0 -1.796875 0.671875q-0.65625 0.671875 -0.65625 1.859375l0 3.671875l-0.953125 0l0 -7.015625l0.90625 0l0 1.296875q0.390625 -0.640625 1.078125 -0.984375q0.6875 -0.359375 1.59375 -0.359375zm7.335602 7.125q-0.859375 0 -1.640625 -0.234375q-0.78125 -0.25 -1.21875 -0.625l0.421875 -0.75q0.453125 0.34375 1.109375 0.5625q0.671875 0.21875 1.390625 0.21875q0.953125 0 1.40625 -0.296875q0.46875 -0.296875 0.46875 -0.84375q0 -0.390625 -0.25 -0.609375q-0.25 -0.21875 -0.640625 -0.328125q-0.390625 -0.109375 -1.03125 -0.21875q-0.84375 -0.15625 -1.375 -0.328125q-0.515625 -0.171875 -0.890625 -0.5625q-0.359375 -0.40625 -0.359375 -1.109375q0 -0.875 0.734375 -1.4375q0.734375 -0.5625 2.046875 -0.5625q0.671875 0 1.34375 0.1875q0.6875 0.171875 1.125 0.46875l-0.40625 0.75q-0.859375 -0.59375 -2.0625 -0.59375q-0.90625 0 -1.375 0.328125q-0.453125 0.3125 -0.453125 0.828125q0 0.40625 0.25 0.640625q0.265625 0.234375 0.65625 0.359375q0.390625 0.109375 1.0625 0.234375q0.84375 0.15625 1.34375 0.3125q0.515625 0.15625 0.875 0.546875q0.359375 0.390625 0.359375 1.0625q0 0.921875 -0.765625 1.46875q-0.765625 0.53125 -2.125 0.53125zm8.329926 -0.484375q-0.265625 0.234375 -0.671875 0.359375q-0.390625 0.125 -0.8125 0.125q-0.984375 0 -1.515625 -0.53125q-0.53125 -0.53125 -0.53125 -1.5l0 -4.234375l-1.25 0l0 -0.8125l1.25 0l0 -1.53125l0.9375 0l0 1.53125l2.140625 0l0 0.8125l-2.140625 0l0 4.171875q0 0.625 0.3125 0.953125q0.3125 0.328125 0.90625 0.328125q0.296875 0 0.5625 -0.09375q0.28125 -0.09375 0.46875 -0.265625l0.34375 0.6875zm4.161194 -6.640625q1.375 0 2.109375 0.6875q0.734375 0.6875 0.734375 2.03125l0 4.34375l-0.90625 0l0 -1.09375q-0.3125 0.546875 -0.9375 0.859375q-0.625 0.296875 -1.46875 0.296875q-1.171875 0 -1.875 -0.546875q-0.6875 -0.5625 -0.6875 -1.484375q0 -0.890625 0.640625 -1.4375q0.65625 -0.546875 2.0625 -0.546875l2.234375 0l0 -0.4375q0 -0.90625 -0.515625 -1.375q-0.5 -0.46875 -1.484375 -0.46875q-0.65625 0 -1.28125 0.21875q-0.609375 0.21875 -1.046875 0.609375l-0.421875 -0.71875q0.53125 -0.453125 1.28125 -0.6875q0.75 -0.25 1.5625 -0.25zm-0.328125 6.375q0.796875 0 1.375 -0.359375q0.578125 -0.359375 0.859375 -1.0625l0 -1.140625l-2.203125 0q-1.796875 0 -1.796875 1.25q0 0.609375 0.453125 0.96875q0.46875 0.34375 1.3125 0.34375zm9.316696 -6.375q1.3125 0 2.09375 0.765625q0.78125 0.765625 0.78125 2.234375l0 4.0625l-0.9375 0l0 -3.96875q0 -1.09375 -0.546875 -1.65625q-0.546875 -0.578125 -1.5625 -0.578125q-1.140625 0 -1.796875 0.671875q-0.65625 0.671875 -0.65625 1.859375l0 3.671875l-0.953125 0l0 -7.015625l0.90625 0l0 1.296875q0.390625 -0.640625 1.078125 -0.984375q0.6875 -0.359375 1.59375 -0.359375zm8.377899 7.125q-1.03125 0 -1.859375 -0.453125q-0.8125 -0.453125 -1.28125 -1.265625q-0.46875 -0.828125 -0.46875 -1.84375q0 -1.03125 0.46875 -1.84375q0.46875 -0.8125 1.28125 -1.265625q0.828125 -0.453125 1.859375 -0.453125q0.90625 0 1.625 0.359375q0.71875 0.34375 1.125 1.03125l-0.703125 0.46875q-0.34375 -0.515625 -0.890625 -0.765625q-0.53125 -0.265625 -1.15625 -0.265625q-0.75 0 -1.359375 0.34375q-0.609375 0.328125 -0.953125 0.953125q-0.328125 0.625 -0.328125 1.4375q0 0.8125 0.328125 1.4375q0.34375 0.609375 0.953125 0.953125q0.609375 0.34375 1.359375 0.34375q0.625 0 1.15625 -0.25q0.546875 -0.265625 0.890625 -0.78125l0.703125 0.484375q-0.40625 0.671875 -1.125 1.03125q-0.71875 0.34375 -1.625 0.34375zm10.5868225 -3.28125l-5.859375 0q0.078125 1.09375 0.828125 1.78125q0.765625 0.671875 1.921875 0.671875q0.65625 0 1.203125 -0.234375q0.546875 -0.234375 0.953125 -0.6875l0.53125 0.609375q-0.46875 0.5625 -1.171875 0.859375q-0.703125 0.28125 -1.53125 0.28125q-1.078125 0 -1.921875 -0.453125q-0.828125 -0.46875 -1.296875 -1.28125q-0.46875 -0.8125 -0.46875 -1.828125q0 -1.03125 0.4375 -1.84375q0.453125 -0.8125 1.234375 -1.265625q0.78125 -0.453125 1.75 -0.453125q0.984375 0 1.75 0.453125q0.78125 0.453125 1.21875 1.265625q0.4375 0.796875 0.4375 1.84375l-0.015625 0.28125zm-3.390625 -3.03125q-1.0 0 -1.6875 0.65625q-0.6875 0.640625 -0.78125 1.671875l4.96875 0q-0.09375 -1.03125 -0.78125 -1.671875q-0.6875 -0.65625 -1.71875 -0.65625zm7.222046 6.3125q-0.859375 0 -1.640625 -0.234375q-0.78125 -0.25 -1.21875 -0.625l0.421875 -0.75q0.453125 0.34375 1.109375 0.5625q0.671875 0.21875 1.390625 0.21875q0.953125 0 1.40625 -0.296875q0.46875 -0.296875 0.46875 -0.84375q0 -0.390625 -0.25 -0.609375q-0.25 -0.21875 -0.640625 -0.328125q-0.390625 -0.109375 -1.03125 -0.21875q-0.84375 -0.15625 -1.375 -0.328125q-0.515625 -0.171875 -0.890625 -0.5625q-0.359375 -0.40625 -0.359375 -1.109375q0 -0.875 0.734375 -1.4375q0.734375 -0.5625 2.046875 -0.5625q0.671875 0 1.34375 0.1875q0.6875 0.171875 1.125 0.46875l-0.40625 0.75q-0.859375 -0.59375 -2.0625 -0.59375q-0.90625 0 -1.375 0.328125q-0.453125 0.3125 -0.453125 0.828125q0 0.40625 0.25 0.640625q0.265625 0.234375 0.65625 0.359375q0.390625 0.109375 1.0625 0.234375q0.84375 0.15625 1.34375 0.3125q0.515625 0.15625 0.875 0.546875q0.359375 0.390625 0.359375 1.0625q0 0.921875 -0.765625 1.46875q-0.765625 0.53125 -2.125 0.53125z" fill-rule="nonzero"/><path fill="#eeeeee" d="m428.88452 188.33595l240.37793 0l0 218.01576l-240.37793 0z" fill-rule="evenodd"/><path stroke="#595959" stroke-width="1.0" stroke-linejoin="round" stroke-linecap="butt" stroke-dasharray="4.0,3.0" d="m428.88452 188.33595l240.37793 0l0 218.01576l-240.37793 0z" fill-rule="evenodd"/><path fill="#000000" d="m447.19702 368.82358l0 9.328125l-0.8125 0l-6.0 -7.578125l0 7.578125l-0.984375 0l0 -9.328125l0.8125 0l6.015625 7.5625l0 -7.5625l0.96875 0zm5.710724 9.390625q-1.015625 0 -1.828125 -0.453125q-0.8125 -0.46875 -1.28125 -1.28125q-0.46875 -0.8125 -0.46875 -1.828125q0 -1.03125 0.46875 -1.84375q0.46875 -0.8125 1.28125 -1.265625q0.8125 -0.453125 1.828125 -0.453125q1.015625 0 1.828125 0.453125q0.8125 0.453125 1.265625 1.265625q0.46875 0.8125 0.46875 1.84375q0 1.015625 -0.46875 1.828125q-0.453125 0.8125 -1.265625 1.28125q-0.8125 0.453125 -1.828125 0.453125zm0 -0.828125q0.75 0 1.34375 -0.34375q0.59375 -0.34375 0.921875 -0.96875q0.328125 -0.625 0.328125 -1.421875q0 -0.8125 -0.328125 -1.4375q-0.328125 -0.625 -0.921875 -0.953125q-0.59375 -0.34375 -1.34375 -0.34375q-0.75 0 -1.34375 0.34375q-0.59375 0.328125 -0.9375 0.953125q-0.328125 0.625 -0.328125 1.4375q0 0.796875 0.328125 1.421875q0.34375 0.625 0.9375 0.96875q0.59375 0.34375 1.34375 0.34375zm11.887939 -9.125l0 9.890625l-0.90625 0l0 -1.390625q-0.421875 0.703125 -1.125 1.078125q-0.703125 0.375 -1.578125 0.375q-0.984375 0 -1.796875 -0.453125q-0.796875 -0.453125 -1.25 -1.265625q-0.453125 -0.8125 -0.453125 -1.84375q0 -1.046875 0.453125 -1.859375q0.453125 -0.8125 1.25 -1.25q0.8125 -0.453125 1.796875 -0.453125q0.84375 0 1.53125 0.359375q0.6875 0.34375 1.125 1.03125l0 -4.21875l0.953125 0zm-3.53125 9.125q0.734375 0 1.328125 -0.34375q0.59375 -0.34375 0.921875 -0.96875q0.34375 -0.625 0.34375 -1.421875q0 -0.8125 -0.34375 -1.4375q-0.328125 -0.625 -0.921875 -0.953125q-0.59375 -0.34375 -1.328125 -0.34375q-0.75 0 -1.34375 0.34375q-0.59375 0.328125 -0.9375 0.953125q-0.328125 0.625 -0.328125 1.4375q0 0.796875 0.328125 1.421875q0.34375 0.625 0.9375 0.96875q0.59375 0.34375 1.34375 0.34375zm12.270813 -2.453125l-5.859375 0q0.078125 1.09375 0.828125 1.78125q0.765625 0.671875 1.921875 0.671875q0.65625 0 1.203125 -0.234375q0.546875 -0.234375 0.953125 -0.6875l0.53125 0.609375q-0.46875 0.5625 -1.171875 0.859375q-0.703125 0.28125 -1.53125 0.28125q-1.078125 0 -1.921875 -0.453125q-0.828125 -0.46875 -1.296875 -1.28125q-0.46875 -0.8125 -0.46875 -1.828125q0 -1.03125 0.4375 -1.84375q0.453125 -0.8125 1.234375 -1.265625q0.78125 -0.453125 1.75 -0.453125q0.984375 0 1.75 0.453125q0.78125 0.453125 1.21875 1.265625q0.4375 0.796875 0.4375 1.84375l-0.015625 0.28125zm-3.390625 -3.03125q-1.0 0 -1.6875 0.65625q-0.6875 0.640625 -0.78125 1.671875l4.96875 0q-0.09375 -1.03125 -0.78125 -1.671875q-0.6875 -0.65625 -1.71875 -0.65625zm4.949127 2.21875l3.5 0l0 0.828125l-3.5 0l0 -0.828125zm9.310059 -5.296875q1.78125 0 2.796875 0.859375q1.015625 0.84375 1.015625 2.34375q0 1.484375 -1.015625 2.328125q-1.015625 0.84375 -2.796875 0.84375l-2.515625 0l0 2.953125l-0.984375 0l0 -9.328125l3.5 0zm-0.03125 5.515625q1.390625 0 2.125 -0.609375q0.734375 -0.609375 0.734375 -1.703125q0 -1.140625 -0.734375 -1.75q-0.734375 -0.609375 -2.125 -0.609375l-2.484375 0l0 4.671875l2.484375 0zm8.599365 3.875q-1.015625 0 -1.828125 -0.453125q-0.8125 -0.46875 -1.28125 -1.28125q-0.46875 -0.8125 -0.46875 -1.828125q0 -1.03125 0.46875 -1.84375q0.46875 -0.8125 1.28125 -1.265625q0.8125 -0.453125 1.828125 -0.453125q1.015625 0 1.828125 0.453125q0.8125 0.453125 1.265625 1.265625q0.46875 0.8125 0.46875 1.84375q0 1.015625 -0.46875 1.828125q-0.453125 0.8125 -1.265625 1.28125q-0.8125 0.453125 -1.828125 0.453125zm0 -0.828125q0.75 0 1.34375 -0.34375q0.59375 -0.34375 0.921875 -0.96875q0.328125 -0.625 0.328125 -1.421875q0 -0.8125 -0.328125 -1.4375q-0.328125 -0.625 -0.921875 -0.953125q-0.59375 -0.34375 -1.34375 -0.34375q-0.75 0 -1.34375 0.34375q-0.59375 0.328125 -0.9375 0.953125q-0.328125 0.625 -0.328125 1.4375q0 0.796875 0.328125 1.421875q0.34375 0.625 0.9375 0.96875q0.59375 0.34375 1.34375 0.34375zm8.356689 0.828125q-1.015625 0 -1.828125 -0.453125q-0.8125 -0.46875 -1.28125 -1.28125q-0.46875 -0.8125 -0.46875 -1.828125q0 -1.03125 0.46875 -1.84375q0.46875 -0.8125 1.28125 -1.265625q0.8125 -0.453125 1.828125 -0.453125q1.015625 0 1.828125 0.453125q0.8125 0.453125 1.265625 1.265625q0.46875 0.8125 0.46875 1.84375q0 1.015625 -0.46875 1.828125q-0.453125 0.8125 -1.265625 1.28125q-0.8125 0.453125 -1.828125 0.453125zm0 -0.828125q0.75 0 1.34375 -0.34375q0.59375 -0.34375 0.921875 -0.96875q0.328125 -0.625 0.328125 -1.421875q0 -0.8125 -0.328125 -1.4375q-0.328125 -0.625 -0.921875 -0.953125q-0.59375 -0.34375 -1.34375 -0.34375q-0.75 0 -1.34375 0.34375q-0.59375 0.328125 -0.9375 0.953125q-0.328125 0.625 -0.328125 1.4375q0 0.796875 0.328125 1.421875q0.34375 0.625 0.9375 0.96875q0.59375 0.34375 1.34375 0.34375zm5.48172 -9.125l0.953125 0l0 9.890625l-0.953125 0l0 -9.890625zm9.405304 0.734375q-0.609375 0 -0.921875 0.34375q-0.3125 0.328125 -0.3125 0.96875l0 0.828125l2.15625 0l0 0.8125l-2.140625 0l0 6.203125l-0.9375 0l0 -6.203125l-1.25 0l0 -0.8125l1.25 0l0 -0.859375q0 -0.96875 0.546875 -1.515625q0.546875 -0.5625 1.5625 -0.5625q0.40625 0 0.78125 0.109375q0.375 0.109375 0.625 0.328125l-0.328125 0.703125q-0.40625 -0.34375 -1.03125 -0.34375zm4.9451294 9.21875q-1.015625 0 -1.828125 -0.453125q-0.8125 -0.46875 -1.28125 -1.28125q-0.46875 -0.8125 -0.46875 -1.828125q0 -1.03125 0.46875 -1.84375q0.46875 -0.8125 1.28125 -1.265625q0.8125 -0.453125 1.828125 -0.453125q1.015625 0 1.828125 0.453125q0.8125 0.453125 1.265625 1.265625q0.46875 0.8125 0.46875 1.84375q0 1.015625 -0.46875 1.828125q-0.453125 0.8125 -1.265625 1.28125q-0.8125 0.453125 -1.828125 0.453125zm0 -0.828125q0.75 0 1.34375 -0.34375q0.59375 -0.34375 0.921875 -0.96875q0.328125 -0.625 0.328125 -1.421875q0 -0.8125 -0.328125 -1.4375q-0.328125 -0.625 -0.921875 -0.953125q-0.59375 -0.34375 -1.34375 -0.34375q-0.75 0 -1.34375 0.34375q-0.59375 0.328125 -0.9375 0.953125q-0.328125 0.625 -0.328125 1.4375q0 0.796875 0.328125 1.421875q0.34375 0.625 0.9375 0.96875q0.59375 0.34375 1.34375 0.34375zm6.3879395 -4.875q0.34375 -0.703125 1.0 -1.0625q0.65625 -0.359375 1.625 -0.359375l0 0.921875l-0.21875 -0.015625q-1.109375 0 -1.734375 0.6875q-0.625 0.671875 -0.625 1.890625l0 3.578125l-0.953125 0l0 -7.015625l0.90625 0l0 1.375z" fill-rule="nonzero"/><path fill="#000000" d="m439.40015 384.82358l0.984375 0l0 8.46875l5.234375 0l0 0.859375l-6.21875 0l0 -9.328125zm10.126892 2.265625q1.375 0 2.109375 0.6875q0.734375 0.6875 0.734375 2.03125l0 4.34375l-0.90625 0l0 -1.09375q-0.3125 0.546875 -0.9375 0.859375q-0.625 0.296875 -1.46875 0.296875q-1.171875 0 -1.875 -0.546875q-0.6875 -0.5625 -0.6875 -1.484375q0 -0.890625 0.640625 -1.4375q0.65625 -0.546875 2.0625 -0.546875l2.234375 0l0 -0.4375q0 -0.90625 -0.515625 -1.375q-0.5 -0.46875 -1.484375 -0.46875q-0.65625 0 -1.28125 0.21875q-0.609375 0.21875 -1.046875 0.609375l-0.421875 -0.71875q0.53125 -0.453125 1.28125 -0.6875q0.75 -0.25 1.5625 -0.25zm-0.328125 6.375q0.796875 0 1.375 -0.359375q0.578125 -0.359375 0.859375 -1.0625l0 -1.140625l-2.203125 0q-1.796875 0 -1.796875 1.25q0 0.609375 0.453125 0.96875q0.46875 0.34375 1.3125 0.34375zm6.6448364 -4.953125q0.34375 -0.703125 1.0 -1.0625q0.65625 -0.359375 1.625 -0.359375l0 0.921875l-0.21875 -0.015625q-1.109375 0 -1.734375 0.6875q-0.625 0.671875 -0.625 1.890625l0 3.578125l-0.953125 0l0 -7.015625l0.90625 0l0 1.375zm10.764954 -1.375l0 6.15625q0 1.796875 -0.875 2.65625q-0.875 0.859375 -2.625 0.859375q-0.984375 0 -1.859375 -0.296875q-0.859375 -0.28125 -1.40625 -0.78125l0.46875 -0.71875q0.515625 0.453125 1.234375 0.703125q0.734375 0.25 1.53125 0.25q1.328125 0 1.953125 -0.625q0.625 -0.609375 0.625 -1.921875l0 -0.890625q-0.4375 0.671875 -1.15625 1.015625q-0.703125 0.34375 -1.578125 0.34375q-0.984375 0 -1.796875 -0.4375q-0.796875 -0.4375 -1.265625 -1.203125q-0.453125 -0.78125 -0.453125 -1.765625q0 -1.0 0.453125 -1.765625q0.46875 -0.765625 1.265625 -1.1875q0.796875 -0.4375 1.796875 -0.4375q0.90625 0 1.625 0.359375q0.71875 0.359375 1.15625 1.03125l0 -1.34375l0.90625 0zm-3.59375 5.90625q0.765625 0 1.375 -0.328125q0.609375 -0.328125 0.953125 -0.90625q0.34375 -0.59375 0.34375 -1.328125q0 -0.75 -0.34375 -1.328125q-0.34375 -0.578125 -0.953125 -0.90625q-0.59375 -0.328125 -1.375 -0.328125q-0.75 0 -1.359375 0.328125q-0.609375 0.3125 -0.953125 0.90625q-0.328125 0.578125 -0.328125 1.328125q0 0.734375 0.328125 1.328125q0.34375 0.578125 0.953125 0.90625q0.609375 0.328125 1.359375 0.328125zm12.346191 -2.109375l-5.859375 0q0.078125 1.09375 0.828125 1.78125q0.765625 0.671875 1.921875 0.671875q0.65625 0 1.203125 -0.234375q0.546875 -0.234375 0.953125 -0.6875l0.53125 0.609375q-0.46875 0.5625 -1.171875 0.859375q-0.703125 0.28125 -1.53125 0.28125q-1.078125 0 -1.921875 -0.453125q-0.828125 -0.46875 -1.296875 -1.28125q-0.46875 -0.8125 -0.46875 -1.828125q0 -1.03125 0.4375 -1.84375q0.453125 -0.8125 1.234375 -1.265625q0.78125 -0.453125 1.75 -0.453125q0.984375 0 1.75 0.453125q0.78125 0.453125 1.21875 1.265625q0.4375 0.796875 0.4375 1.84375l-0.015625 0.28125zm-3.390625 -3.03125q-1.0 0 -1.6875 0.65625q-0.6875 0.640625 -0.78125 1.671875l4.96875 0q-0.09375 -1.03125 -0.78125 -1.671875q-0.6875 -0.65625 -1.71875 -0.65625zm9.026489 -3.078125l0.984375 0l0 9.328125l-0.984375 0l0 -9.328125zm7.4000854 2.265625q1.3125 0 2.09375 0.765625q0.78125 0.765625 0.78125 2.234375l0 4.0625l-0.9375 0l0 -3.96875q0 -1.09375 -0.546875 -1.65625q-0.546875 -0.578125 -1.5625 -0.578125q-1.140625 0 -1.796875 0.671875q-0.65625 0.671875 -0.65625 1.859375l0 3.671875l-0.953125 0l0 -7.015625l0.90625 0l0 1.296875q0.390625 -0.640625 1.078125 -0.984375q0.6875 -0.359375 1.59375 -0.359375zm7.335602 7.125q-0.859375 0 -1.640625 -0.234375q-0.78125 -0.25 -1.21875 -0.625l0.421875 -0.75q0.453125 0.34375 1.109375 0.5625q0.671875 0.21875 1.390625 0.21875q0.953125 0 1.40625 -0.296875q0.46875 -0.296875 0.46875 -0.84375q0 -0.390625 -0.25 -0.609375q-0.25 -0.21875 -0.640625 -0.328125q-0.390625 -0.109375 -1.03125 -0.21875q-0.84375 -0.15625 -1.375 -0.328125q-0.515625 -0.171875 -0.890625 -0.5625q-0.359375 -0.40625 -0.359375 -1.109375q0 -0.875 0.734375 -1.4375q0.734375 -0.5625 2.046875 -0.5625q0.671875 0 1.34375 0.1875q0.6875 0.171875 1.125 0.46875l-0.40625 0.75q-0.859375 -0.59375 -2.0625 -0.59375q-0.90625 0 -1.375 0.328125q-0.453125 0.3125 -0.453125 0.828125q0 0.40625 0.25 0.640625q0.265625 0.234375 0.65625 0.359375q0.390625 0.109375 1.0625 0.234375q0.84375 0.15625 1.34375 0.3125q0.515625 0.15625 0.875 0.546875q0.359375 0.390625 0.359375 1.0625q0 0.921875 -0.765625 1.46875q-0.765625 0.53125 -2.125 0.53125zm8.329926 -0.484375q-0.265625 0.234375 -0.671875 0.359375q-0.390625 0.125 -0.8125 0.125q-0.984375 0 -1.515625 -0.53125q-0.53125 -0.53125 -0.53125 -1.5l0 -4.234375l-1.25 0l0 -0.8125l1.25 0l0 -1.53125l0.9375 0l0 1.53125l2.140625 0l0 0.8125l-2.140625 0l0 4.171875q0 0.625 0.3125 0.953125q0.3125 0.328125 0.90625 0.328125q0.296875 0 0.5625 -0.09375q0.28125 -0.09375 0.46875 -0.265625l0.34375 0.6875zm4.161194 -6.640625q1.375 0 2.109375 0.6875q0.734375 0.6875 0.734375 2.03125l0 4.34375l-0.90625 0l0 -1.09375q-0.3125 0.546875 -0.9375 0.859375q-0.625 0.296875 -1.46875 0.296875q-1.171875 0 -1.875 -0.546875q-0.6875 -0.5625 -0.6875 -1.484375q0 -0.890625 0.640625 -1.4375q0.65625 -0.546875 2.0625 -0.546875l2.234375 0l0 -0.4375q0 -0.90625 -0.515625 -1.375q-0.5 -0.46875 -1.484375 -0.46875q-0.65625 0 -1.28125 0.21875q-0.609375 0.21875 -1.046875 0.609375l-0.421875 -0.71875q0.53125 -0.453125 1.28125 -0.6875q0.75 -0.25 1.5625 -0.25zm-0.328125 6.375q0.796875 0 1.375 -0.359375q0.578125 -0.359375 0.859375 -1.0625l0 -1.140625l-2.203125 0q-1.796875 0 -1.796875 1.25q0 0.609375 0.453125 0.96875q0.46875 0.34375 1.3125 0.34375zm9.316711 -6.375q1.3125 0 2.09375 0.765625q0.78125 0.765625 0.78125 2.234375l0 4.0625l-0.9375 0l0 -3.96875q0 -1.09375 -0.546875 -1.65625q-0.546875 -0.578125 -1.5625 -0.578125q-1.140625 0 -1.796875 0.671875q-0.65625 0.671875 -0.65625 1.859375l0 3.671875l-0.953125 0l0 -7.015625l0.90625 0l0 1.296875q0.390625 -0.640625 1.078125 -0.984375q0.6875 -0.359375 1.59375 -0.359375zm8.377869 7.125q-1.03125 0 -1.859375 -0.453125q-0.8125 -0.453125 -1.28125 -1.265625q-0.46875 -0.828125 -0.46875 -1.84375q0 -1.03125 0.46875 -1.84375q0.46875 -0.8125 1.28125 -1.265625q0.828125 -0.453125 1.859375 -0.453125q0.90625 0 1.625 0.359375q0.71875 0.34375 1.125 1.03125l-0.703125 0.46875q-0.34375 -0.515625 -0.890625 -0.765625q-0.53125 -0.265625 -1.15625 -0.265625q-0.75 0 -1.359375 0.34375q-0.609375 0.328125 -0.953125 0.953125q-0.328125 0.625 -0.328125 1.4375q0 0.8125 0.328125 1.4375q0.34375 0.609375 0.953125 0.953125q0.609375 0.34375 1.359375 0.34375q0.625 0 1.15625 -0.25q0.546875 -0.265625 0.890625 -0.78125l0.703125 0.484375q-0.40625 0.671875 -1.125 1.03125q-0.71875 0.34375 -1.625 0.34375zm10.586853 -3.28125l-5.859375 0q0.078125 1.09375 0.828125 1.78125q0.765625 0.671875 1.921875 0.671875q0.65625 0 1.203125 -0.234375q0.546875 -0.234375 0.953125 -0.6875l0.53125 0.609375q-0.46875 0.5625 -1.171875 0.859375q-0.703125 0.28125 -1.53125 0.28125q-1.078125 0 -1.921875 -0.453125q-0.828125 -0.46875 -1.296875 -1.28125q-0.46875 -0.8125 -0.46875 -1.828125q0 -1.03125 0.4375 -1.84375q0.453125 -0.8125 1.234375 -1.265625q0.78125 -0.453125 1.75 -0.453125q0.984375 0 1.75 0.453125q0.78125 0.453125 1.21875 1.265625q0.4375 0.796875 0.4375 1.84375l-0.015625 0.28125zm-3.390625 -3.03125q-1.0 0 -1.6875 0.65625q-0.6875 0.640625 -0.78125 1.671875l4.96875 0q-0.09375 -1.03125 -0.78125 -1.671875q-0.6875 -0.65625 -1.71875 -0.65625zm7.222046 6.3125q-0.859375 0 -1.640625 -0.234375q-0.78125 -0.25 -1.21875 -0.625l0.421875 -0.75q0.453125 0.34375 1.109375 0.5625q0.671875 0.21875 1.390625 0.21875q0.953125 0 1.40625 -0.296875q0.46875 -0.296875 0.46875 -0.84375q0 -0.390625 -0.25 -0.609375q-0.25 -0.21875 -0.640625 -0.328125q-0.390625 -0.109375 -1.03125 -0.21875q-0.84375 -0.15625 -1.375 -0.328125q-0.515625 -0.171875 -0.890625 -0.5625q-0.359375 -0.40625 -0.359375 -1.109375q0 -0.875 0.734375 -1.4375q0.734375 -0.5625 2.046875 -0.5625q0.671875 0 1.34375 0.1875q0.6875 0.171875 1.125 0.46875l-0.40625 0.75q-0.859375 -0.59375 -2.0625 -0.59375q-0.90625 0 -1.375 0.328125q-0.453125 0.3125 -0.453125 0.828125q0 0.40625 0.25 0.640625q0.265625 0.234375 0.65625 0.359375q0.390625 0.109375 1.0625 0.234375q0.84375 0.15625 1.34375 0.3125q0.515625 0.15625 0.875 0.546875q0.359375 0.390625 0.359375 1.0625q0 0.921875 -0.765625 1.46875q-0.765625 0.53125 -2.125 0.53125z" fill-rule="nonzero"/><path fill="#6fa8dc" d="m229.98688 281.46982l46.173218 0l0 43.24408l-46.173218 0z" fill-rule="evenodd"/><path stroke="#595959" stroke-width="1.0" stroke-linejoin="round" stroke-linecap="butt" d="m229.98688 281.46982l46.173218 0l0 43.24408l-46.173218 0z" fill-rule="evenodd"/><path fill="#000000" d="m241.03375 306.1608q-0.515625 0 -1.0 -0.171875q-0.46875 -0.171875 -0.734375 -0.4375l0.1875 -0.375q0.265625 0.25 0.671875 0.40625q0.421875 0.15625 0.875 0.15625q0.625 0 0.9375 -0.234375q0.3125 -0.234375 0.3125 -0.59375q0 -0.28125 -0.171875 -0.4375q-0.171875 -0.171875 -0.421875 -0.265625q-0.234375 -0.09375 -0.671875 -0.203125q-0.53125 -0.125 -0.84375 -0.25q-0.3125 -0.125 -0.546875 -0.375q-0.21875 -0.25 -0.21875 -0.6875q0 -0.359375 0.1875 -0.640625q0.1875 -0.296875 0.578125 -0.46875q0.390625 -0.171875 0.953125 -0.171875q0.40625 0 0.78125 0.109375q0.390625 0.109375 0.671875 0.3125l-0.171875 0.390625q-0.296875 -0.203125 -0.625 -0.296875q-0.328125 -0.09375 -0.65625 -0.09375q-0.609375 0 -0.921875 0.234375q-0.3125 0.234375 -0.3125 0.609375q0 0.28125 0.171875 0.453125q0.171875 0.171875 0.421875 0.265625q0.265625 0.078125 0.703125 0.1875q0.5 0.125 0.8125 0.25q0.328125 0.125 0.546875 0.375q0.21875 0.25 0.21875 0.671875q0 0.359375 -0.1875 0.65625q-0.1875 0.28125 -0.59375 0.453125q-0.390625 0.171875 -0.953125 0.171875zm7.0779266 -3.578125q0.65625 0 1.03125 0.390625q0.375 0.375 0.375 1.109375l0 2.03125l-0.46875 0l0 -1.984375q0 -0.546875 -0.265625 -0.828125q-0.265625 -0.296875 -0.75 -0.296875q-0.546875 0 -0.859375 0.34375q-0.3125 0.34375 -0.3125 0.921875l0 1.84375l-0.46875 0l0 -1.984375q0 -0.546875 -0.265625 -0.828125q-0.265625 -0.296875 -0.75 -0.296875q-0.53125 0 -0.859375 0.34375q-0.3125 0.34375 -0.3125 0.921875l0 1.84375l-0.46875 0l0 -3.5l0.453125 0l0 0.640625q0.1875 -0.328125 0.515625 -0.5q0.34375 -0.171875 0.765625 -0.171875q0.4375 0 0.765625 0.1875q0.328125 0.1875 0.484375 0.5625q0.1875 -0.359375 0.546875 -0.546875q0.375 -0.203125 0.84375 -0.203125zm3.9215698 0q0.671875 0 1.03125 0.34375q0.375 0.34375 0.375 1.015625l0 2.171875l-0.453125 0l0 -0.546875q-0.15625 0.28125 -0.46875 0.4375q-0.3125 0.140625 -0.734375 0.140625q-0.578125 0 -0.9375 -0.28125q-0.34375 -0.28125 -0.34375 -0.734375q0 -0.453125 0.328125 -0.71875q0.328125 -0.28125 1.03125 -0.28125l1.109375 0l0 -0.203125q0 -0.453125 -0.25 -0.6875q-0.25 -0.234375 -0.734375 -0.234375q-0.34375 0 -0.65625 0.109375q-0.296875 0.109375 -0.515625 0.296875l-0.21875 -0.359375q0.265625 -0.21875 0.640625 -0.34375q0.375 -0.125 0.796875 -0.125zm-0.171875 3.1875q0.390625 0 0.671875 -0.171875q0.296875 -0.1875 0.4375 -0.53125l0 -0.578125l-1.09375 0q-0.90625 0 -0.90625 0.625q0 0.3125 0.234375 0.484375q0.234375 0.171875 0.65625 0.171875zm2.8646393 -4.59375l0.46875 0l0 4.9375l-0.46875 0l0 -4.9375zm1.7904968 0l0.46875 0l0 4.9375l-0.46875 0l0 -4.9375z" fill-rule="nonzero"/><path fill="#000000" d="m243.64313 309.45767l0 4.65625l-0.40625 0l-3.0 -3.78125l0 3.78125l-0.484375 0l0 -4.65625l0.40625 0l3.0 3.78125l0 -3.78125l0.484375 0zm2.8489685 4.6875q-0.515625 0 -0.921875 -0.21875q-0.40625 -0.234375 -0.640625 -0.640625q-0.21875 -0.40625 -0.21875 -0.921875q0 -0.515625 0.21875 -0.921875q0.234375 -0.40625 0.640625 -0.625q0.40625 -0.234375 0.921875 -0.234375q0.5 0 0.90625 0.234375q0.40625 0.21875 0.640625 0.625q0.234375 0.40625 0.234375 0.921875q0 0.515625 -0.234375 0.921875q-0.234375 0.40625 -0.640625 0.640625q-0.40625 0.21875 -0.90625 0.21875zm0 -0.421875q0.375 0 0.671875 -0.15625q0.296875 -0.171875 0.453125 -0.484375q0.171875 -0.3125 0.171875 -0.71875q0 -0.40625 -0.171875 -0.71875q-0.15625 -0.3125 -0.453125 -0.46875q-0.296875 -0.171875 -0.671875 -0.171875q-0.375 0 -0.671875 0.171875q-0.296875 0.15625 -0.46875 0.46875q-0.171875 0.3125 -0.171875 0.71875q0 0.40625 0.171875 0.71875q0.171875 0.3125 0.46875 0.484375q0.296875 0.15625 0.671875 0.15625zm5.939041 -4.546875l0 4.9375l-0.453125 0l0 -0.6875q-0.21875 0.34375 -0.578125 0.53125q-0.34375 0.1875 -0.78125 0.1875q-0.484375 0 -0.890625 -0.21875q-0.390625 -0.234375 -0.625 -0.640625q-0.21875 -0.40625 -0.21875 -0.921875q0 -0.515625 0.21875 -0.921875q0.234375 -0.40625 0.625 -0.625q0.40625 -0.234375 0.890625 -0.234375q0.421875 0 0.765625 0.1875q0.34375 0.171875 0.5625 0.515625l0 -2.109375l0.484375 0zm-1.765625 4.546875q0.359375 0 0.65625 -0.15625q0.296875 -0.171875 0.46875 -0.484375q0.171875 -0.3125 0.171875 -0.71875q0 -0.40625 -0.171875 -0.71875q-0.171875 -0.3125 -0.46875 -0.46875q-0.296875 -0.171875 -0.65625 -0.171875q-0.375 0 -0.671875 0.171875q-0.296875 0.15625 -0.46875 0.46875q-0.171875 0.3125 -0.171875 0.71875q0 0.40625 0.171875 0.71875q0.171875 0.3125 0.46875 0.484375q0.296875 0.15625 0.671875 0.15625zm6.122238 -1.21875l-2.9218597 0q0.03125 0.546875 0.40625 0.890625q0.390625 0.328125 0.96875 0.328125q0.328125 0 0.59375 -0.109375q0.28123474 -0.125 0.48435974 -0.34375l0.265625 0.296875q-0.234375 0.28125 -0.59373474 0.4375q-0.34375 0.140625 -0.765625 0.140625q-0.53125 0 -0.953125 -0.21875q-0.421875 -0.234375 -0.65625 -0.640625q-0.21875 -0.40625 -0.21875 -0.921875q0 -0.515625 0.21875 -0.921875q0.21875 -0.40625 0.609375 -0.625q0.390625 -0.234375 0.875 -0.234375q0.484375 0 0.875 0.234375q0.39060974 0.21875 0.60935974 0.625q0.21875 0.40625 0.21875 0.921875l-0.015625 0.140625zm-1.6874847 -1.515625q-0.5 0 -0.84375 0.328125q-0.34375 0.328125 -0.390625 0.84375l2.4843597 0q-0.046875 -0.515625 -0.39060974 -0.84375q-0.34375 -0.328125 -0.859375 -0.328125zm5.3892365 -1.53125l0 4.65625l-0.484375 0l0 -4.234375l-1.09375 0l0 -0.421875l1.578125 0z" fill-rule="nonzero"/><path fill="#6fa8dc" d="m293.98688 281.46982l46.173218 0l0 43.24408l-46.173218 0z" fill-rule="evenodd"/><path stroke="#595959" stroke-width="1.0" stroke-linejoin="round" stroke-linecap="butt" d="m293.98688 281.46982l46.173218 0l0 43.24408l-46.173218 0z" fill-rule="evenodd"/><path fill="#000000" d="m305.03375 306.1608q-0.515625 0 -1.0 -0.171875q-0.46875 -0.171875 -0.734375 -0.4375l0.1875 -0.375q0.265625 0.25 0.671875 0.40625q0.421875 0.15625 0.875 0.15625q0.625 0 0.9375 -0.234375q0.3125 -0.234375 0.3125 -0.59375q0 -0.28125 -0.171875 -0.4375q-0.171875 -0.171875 -0.421875 -0.265625q-0.234375 -0.09375 -0.671875 -0.203125q-0.53125 -0.125 -0.84375 -0.25q-0.3125 -0.125 -0.546875 -0.375q-0.21875 -0.25 -0.21875 -0.6875q0 -0.359375 0.1875 -0.640625q0.1875 -0.296875 0.578125 -0.46875q0.390625 -0.171875 0.953125 -0.171875q0.40625 0 0.78125 0.109375q0.390625 0.109375 0.671875 0.3125l-0.171875 0.390625q-0.296875 -0.203125 -0.625 -0.296875q-0.328125 -0.09375 -0.65625 -0.09375q-0.609375 0 -0.921875 0.234375q-0.3125 0.234375 -0.3125 0.609375q0 0.28125 0.171875 0.453125q0.171875 0.171875 0.421875 0.265625q0.265625 0.078125 0.703125 0.1875q0.5 0.125 0.8125 0.25q0.328125 0.125 0.546875 0.375q0.21875 0.25 0.21875 0.671875q0 0.359375 -0.1875 0.65625q-0.1875 0.28125 -0.59375 0.453125q-0.390625 0.171875 -0.953125 0.171875zm7.0779114 -3.578125q0.65625 0 1.03125 0.390625q0.375 0.375 0.375 1.109375l0 2.03125l-0.46875 0l0 -1.984375q0 -0.546875 -0.265625 -0.828125q-0.265625 -0.296875 -0.75 -0.296875q-0.546875 0 -0.859375 0.34375q-0.3125 0.34375 -0.3125 0.921875l0 1.84375l-0.46875 0l0 -1.984375q0 -0.546875 -0.265625 -0.828125q-0.265625 -0.296875 -0.75 -0.296875q-0.53125 0 -0.859375 0.34375q-0.3125 0.34375 -0.3125 0.921875l0 1.84375l-0.46875 0l0 -3.5l0.453125 0l0 0.640625q0.1875 -0.328125 0.515625 -0.5q0.34375 -0.171875 0.765625 -0.171875q0.4375 0 0.765625 0.1875q0.328125 0.1875 0.484375 0.5625q0.1875 -0.359375 0.546875 -0.546875q0.375 -0.203125 0.84375 -0.203125zm3.9215698 0q0.671875 0 1.03125 0.34375q0.375 0.34375 0.375 1.015625l0 2.171875l-0.453125 0l0 -0.546875q-0.15625 0.28125 -0.46875 0.4375q-0.3125 0.140625 -0.734375 0.140625q-0.578125 0 -0.9375 -0.28125q-0.34375 -0.28125 -0.34375 -0.734375q0 -0.453125 0.328125 -0.71875q0.328125 -0.28125 1.03125 -0.28125l1.109375 0l0 -0.203125q0 -0.453125 -0.25 -0.6875q-0.25 -0.234375 -0.734375 -0.234375q-0.34375 0 -0.65625 0.109375q-0.296875 0.109375 -0.515625 0.296875l-0.21875 -0.359375q0.265625 -0.21875 0.640625 -0.34375q0.375 -0.125 0.796875 -0.125zm-0.171875 3.1875q0.390625 0 0.671875 -0.171875q0.296875 -0.1875 0.4375 -0.53125l0 -0.578125l-1.09375 0q-0.90625 0 -0.90625 0.625q0 0.3125 0.234375 0.484375q0.234375 0.171875 0.65625 0.171875zm2.8646545 -4.59375l0.46875 0l0 4.9375l-0.46875 0l0 -4.9375zm1.7904968 0l0.46875 0l0 4.9375l-0.46875 0l0 -4.9375z" fill-rule="nonzero"/><path fill="#000000" d="m307.64313 309.45767l0 4.65625l-0.40625 0l-3.0 -3.78125l0 3.78125l-0.484375 0l0 -4.65625l0.40625 0l3.0 3.78125l0 -3.78125l0.484375 0zm2.8489685 4.6875q-0.515625 0 -0.921875 -0.21875q-0.40625 -0.234375 -0.640625 -0.640625q-0.21875 -0.40625 -0.21875 -0.921875q0 -0.515625 0.21875 -0.921875q0.234375 -0.40625 0.640625 -0.625q0.40625 -0.234375 0.921875 -0.234375q0.5 0 0.90625 0.234375q0.40625 0.21875 0.640625 0.625q0.234375 0.40625 0.234375 0.921875q0 0.515625 -0.234375 0.921875q-0.234375 0.40625 -0.640625 0.640625q-0.40625 0.21875 -0.90625 0.21875zm0 -0.421875q0.375 0 0.671875 -0.15625q0.296875 -0.171875 0.453125 -0.484375q0.171875 -0.3125 0.171875 -0.71875q0 -0.40625 -0.171875 -0.71875q-0.15625 -0.3125 -0.453125 -0.46875q-0.296875 -0.171875 -0.671875 -0.171875q-0.375 0 -0.671875 0.171875q-0.296875 0.15625 -0.46875 0.46875q-0.171875 0.3125 -0.171875 0.71875q0 0.40625 0.171875 0.71875q0.171875 0.3125 0.46875 0.484375q0.296875 0.15625 0.671875 0.15625zm5.939026 -4.546875l0 4.9375l-0.453125 0l0 -0.6875q-0.21875 0.34375 -0.578125 0.53125q-0.34375 0.1875 -0.78125 0.1875q-0.484375 0 -0.890625 -0.21875q-0.390625 -0.234375 -0.625 -0.640625q-0.21875 -0.40625 -0.21875 -0.921875q0 -0.515625 0.21875 -0.921875q0.234375 -0.40625 0.625 -0.625q0.40625 -0.234375 0.890625 -0.234375q0.421875 0 0.765625 0.1875q0.34375 0.171875 0.5625 0.515625l0 -2.109375l0.484375 0zm-1.765625 4.546875q0.359375 0 0.65625 -0.15625q0.296875 -0.171875 0.46875 -0.484375q0.171875 -0.3125 0.171875 -0.71875q0 -0.40625 -0.171875 -0.71875q-0.171875 -0.3125 -0.46875 -0.46875q-0.296875 -0.171875 -0.65625 -0.171875q-0.375 0 -0.671875 0.171875q-0.296875 0.15625 -0.46875 0.46875q-0.171875 0.3125 -0.171875 0.71875q0 0.40625 0.171875 0.71875q0.171875 0.3125 0.46875 0.484375q0.296875 0.15625 0.671875 0.15625zm6.1222534 -1.21875l-2.921875 0q0.03125 0.546875 0.40625 0.890625q0.390625 0.328125 0.96875 0.328125q0.328125 0 0.59375 -0.109375q0.28125 -0.125 0.484375 -0.34375l0.265625 0.296875q-0.234375 0.28125 -0.59375 0.4375q-0.34375 0.140625 -0.765625 0.140625q-0.53125 0 -0.953125 -0.21875q-0.421875 -0.234375 -0.65625 -0.640625q-0.21875 -0.40625 -0.21875 -0.921875q0 -0.515625 0.21875 -0.921875q0.21875 -0.40625 0.609375 -0.625q0.390625 -0.234375 0.875 -0.234375q0.484375 0 0.875 0.234375q0.390625 0.21875 0.609375 0.625q0.21875 0.40625 0.21875 0.921875l-0.015625 0.140625zm-1.6875 -1.515625q-0.5 0 -0.84375 0.328125q-0.34375 0.328125 -0.390625 0.84375l2.484375 0q-0.046875 -0.515625 -0.390625 -0.84375q-0.34375 -0.328125 -0.859375 -0.328125zm7.2798767 2.703125l0 0.421875l-3.265625 0l0 -0.34375l1.9375 -1.890625q0.359375 -0.359375 0.484375 -0.625q0.140625 -0.265625 0.140625 -0.53125q0 -0.40625 -0.296875 -0.640625q-0.28125 -0.234375 -0.796875 -0.234375q-0.828125 0 -1.28125 0.53125l-0.328125 -0.296875q0.265625 -0.328125 0.6875 -0.5q0.421875 -0.171875 0.953125 -0.171875q0.71875 0 1.125 0.34375q0.421875 0.328125 0.421875 0.921875q0 0.359375 -0.15625 0.6875q-0.15625 0.328125 -0.609375 0.765625l-1.578125 1.5625l2.5625 0z" fill-rule="nonzero"/><path fill="#000000" fill-opacity="0.0" d="m190.17586 303.09186l21.984253 0" fill-rule="evenodd"/><path stroke="#595959" stroke-width="1.0" stroke-linejoin="round" stroke-linecap="butt" d="m196.17586 303.09186l9.984253 0" fill-rule="evenodd"/><path fill="#595959" stroke="#595959" stroke-width="1.0" stroke-linecap="butt" d="m196.17586 301.44012l-4.538101 1.6517334l4.538101 1.6517334z" fill-rule="evenodd"/><path fill="#595959" stroke="#595959" stroke-width="1.0" stroke-linecap="butt" d="m206.16011 304.7436l4.538086 -1.6517334l-4.538086 -1.6517334z" fill-rule="evenodd"/><path fill="#000000" fill-opacity="0.0" d="m357.98688 303.09186l21.984253 0" fill-rule="evenodd"/><path stroke="#595959" stroke-width="1.0" stroke-linejoin="round" stroke-linecap="butt" d="m363.98688 303.09186l9.984253 0" fill-rule="evenodd"/><path fill="#595959" stroke="#595959" stroke-width="1.0" stroke-linecap="butt" d="m363.98688 301.44012l-4.538086 1.6517334l4.538086 1.6517334z" fill-rule="evenodd"/><path fill="#595959" stroke="#595959" stroke-width="1.0" stroke-linecap="butt" d="m373.97113 304.7436l4.538086 -1.6517334l-4.538086 -1.6517334z" fill-rule="evenodd"/><path fill="#e06666" d="m493.98688 222.04462l46.173218 0l0 102.677155l-46.173218 0z" fill-rule="evenodd"/><path stroke="#595959" stroke-width="1.0" stroke-linejoin="round" stroke-linecap="butt" d="m493.98688 222.04462l46.173218 0l0 102.677155l-46.173218 0z" fill-rule="evenodd"/><path fill="#000000" d="m503.7525 301.46555l0.484375 0l0 4.234375l2.609375 0l0 0.421875l-3.09375 0l0 -4.65625zm5.0588074 1.125q0.671875 0 1.03125 0.34375q0.375 0.34375 0.375 1.015625l0 2.171875l-0.453125 0l0 -0.546875q-0.15625 0.28125 -0.46875 0.4375q-0.3125 0.140625 -0.734375 0.140625q-0.578125 0 -0.9375 -0.28125q-0.34375 -0.28125 -0.34375 -0.734375q0 -0.453125 0.328125 -0.71875q0.328125 -0.28125 1.03125 -0.28125l1.109375 0l0 -0.203125q0 -0.453125 -0.25 -0.6875q-0.25 -0.234375 -0.734375 -0.234375q-0.34375 0 -0.65625 0.109375q-0.296875 0.109375 -0.515625 0.296875l-0.21875 -0.359375q0.265625 -0.21875 0.640625 -0.34375q0.375 -0.125 0.796875 -0.125zm-0.171875 3.1875q0.390625 0 0.671875 -0.171875q0.296875 -0.1875 0.4375 -0.53125l0 -0.578125l-1.09375 0q-0.90625 0 -0.90625 0.625q0 0.3125 0.234375 0.484375q0.234375 0.171875 0.65625 0.171875zm3.3177795 -2.46875q0.171875 -0.359375 0.5 -0.53125q0.328125 -0.1875 0.8125 -0.1875l0 0.46875l-0.109375 -0.015625q-0.5625 0 -0.875 0.34375q-0.3125 0.34375 -0.3125 0.953125l0 1.78125l-0.46875 0l0 -3.5l0.453125 0l0 0.6875zm5.3793335 -0.6875l0 3.078125q0 0.890625 -0.4375 1.3125q-0.4375 0.4375 -1.3125 0.4375q-0.5 0 -0.9375 -0.15625q-0.421875 -0.140625 -0.703125 -0.390625l0.25 -0.359375q0.25 0.234375 0.609375 0.359375q0.359375 0.125 0.765625 0.125q0.65625 0 0.96875 -0.3125q0.3125 -0.3125 0.3125 -0.953125l0 -0.453125q-0.21875 0.328125 -0.578125 0.5q-0.34375 0.171875 -0.78125 0.171875q-0.484375 0 -0.890625 -0.203125q-0.40625 -0.21875 -0.640625 -0.609375q-0.21875 -0.390625 -0.21875 -0.890625q0 -0.484375 0.21875 -0.875q0.234375 -0.390625 0.625 -0.59375q0.40625 -0.21875 0.90625 -0.21875q0.453125 0 0.8125 0.1875q0.359375 0.171875 0.578125 0.515625l0 -0.671875l0.453125 0zm-1.796875 2.953125q0.375 0 0.6875 -0.15625q0.3125 -0.171875 0.46875 -0.46875q0.171875 -0.296875 0.171875 -0.671875q0 -0.359375 -0.171875 -0.640625q-0.15625 -0.296875 -0.46875 -0.453125q-0.296875 -0.171875 -0.6875 -0.171875q-0.375 0 -0.6875 0.15625q-0.296875 0.15625 -0.46875 0.453125q-0.171875 0.296875 -0.171875 0.65625q0 0.375 0.171875 0.671875q0.171875 0.296875 0.46875 0.46875q0.3125 0.15625 0.6875 0.15625zm6.159851 -1.0625l-2.921875 0q0.03125 0.546875 0.40625 0.890625q0.390625 0.328125 0.96875 0.328125q0.328125 0 0.59375 -0.109375q0.28125 -0.125 0.484375 -0.34375l0.265625 0.296875q-0.234375 0.28125 -0.59375 0.4375q-0.34375 0.140625 -0.765625 0.140625q-0.53125 0 -0.953125 -0.21875q-0.421875 -0.234375 -0.65625 -0.640625q-0.21875 -0.40625 -0.21875 -0.921875q0 -0.515625 0.21875 -0.921875q0.21875 -0.40625 0.609375 -0.625q0.390625 -0.234375 0.875 -0.234375q0.484375 0 0.875 0.234375q0.390625 0.21875 0.609375 0.625q0.21875 0.40625 0.21875 0.921875l-0.015625 0.140625zm-1.6875 -1.515625q-0.5 0 -0.84375 0.328125q-0.34375 0.328125 -0.390625 0.84375l2.484375 0q-0.046875 -0.515625 -0.390625 -0.84375q-0.34375 -0.328125 -0.859375 -0.328125z" fill-rule="nonzero"/><path fill="#000000" d="m507.64313 309.46555l0 4.65625l-0.40625 0l-3.0 -3.78125l0 3.78125l-0.484375 0l0 -4.65625l0.40625 0l3.0 3.78125l0 -3.78125l0.484375 0zm2.8489685 4.6875q-0.515625 0 -0.921875 -0.21875q-0.40625 -0.234375 -0.640625 -0.640625q-0.21875 -0.40625 -0.21875 -0.921875q0 -0.515625 0.21875 -0.921875q0.234375 -0.40625 0.640625 -0.625q0.40625 -0.234375 0.921875 -0.234375q0.5 0 0.90625 0.234375q0.40625 0.21875 0.6405945 0.625q0.234375 0.40625 0.234375 0.921875q0 0.515625 -0.234375 0.921875q-0.23434448 0.40625 -0.6405945 0.640625q-0.40625 0.21875 -0.90625 0.21875zm0 -0.421875q0.375 0 0.671875 -0.15625q0.296875 -0.171875 0.453125 -0.484375q0.171875 -0.3125 0.171875 -0.71875q0 -0.40625 -0.171875 -0.71875q-0.15625 -0.3125 -0.453125 -0.46875q-0.296875 -0.171875 -0.671875 -0.171875q-0.375 0 -0.671875 0.171875q-0.296875 0.15625 -0.46875 0.46875q-0.171875 0.3125 -0.171875 0.71875q0 0.40625 0.171875 0.71875q0.171875 0.3125 0.46875 0.484375q0.296875 0.15625 0.671875 0.15625zm5.9390564 -4.546875l0 4.9375l-0.453125 0l0 -0.6875q-0.21875 0.34375 -0.578125 0.53125q-0.34375 0.1875 -0.78125 0.1875q-0.484375 0 -0.890625 -0.21875q-0.390625 -0.234375 -0.625 -0.640625q-0.21875 -0.40625 -0.21875 -0.921875q0 -0.515625 0.21875 -0.921875q0.234375 -0.40625 0.625 -0.625q0.40625 -0.234375 0.890625 -0.234375q0.421875 0 0.765625 0.1875q0.34375 0.171875 0.5625 0.515625l0 -2.109375l0.484375 0zm-1.765625 4.546875q0.359375 0 0.65625 -0.15625q0.296875 -0.171875 0.46875 -0.484375q0.171875 -0.3125 0.171875 -0.71875q0 -0.40625 -0.171875 -0.71875q-0.171875 -0.3125 -0.46875 -0.46875q-0.296875 -0.171875 -0.65625 -0.171875q-0.375 0 -0.671875 0.171875q-0.296875 0.15625 -0.46875 0.46875q-0.171875 0.3125 -0.171875 0.71875q0 0.40625 0.171875 0.71875q0.171875 0.3125 0.46875 0.484375q0.296875 0.15625 0.671875 0.15625zm6.1222534 -1.21875l-2.921875 0q0.03125 0.546875 0.40625 0.890625q0.390625 0.328125 0.96875 0.328125q0.328125 0 0.59375 -0.109375q0.28125 -0.125 0.484375 -0.34375l0.265625 0.296875q-0.234375 0.28125 -0.59375 0.4375q-0.34375 0.140625 -0.765625 0.140625q-0.53125 0 -0.953125 -0.21875q-0.421875 -0.234375 -0.65625 -0.640625q-0.21875 -0.40625 -0.21875 -0.921875q0 -0.515625 0.21875 -0.921875q0.21875 -0.40625 0.609375 -0.625q0.390625 -0.234375 0.875 -0.234375q0.484375 0 0.875 0.234375q0.390625 0.21875 0.609375 0.625q0.21875 0.40625 0.21875 0.921875l-0.015625 0.140625zm-1.6875 -1.515625q-0.5 0 -0.84375 0.328125q-0.34375 0.328125 -0.390625 0.84375l2.484375 0q-0.046875 -0.515625 -0.390625 -0.84375q-0.34375 -0.328125 -0.859375 -0.328125zm5.389221 -1.53125l0 4.65625l-0.484375 0l0 -4.234375l-1.09375 0l0 -0.421875l1.578125 0z" fill-rule="nonzero"/><path fill="#e06666" d="m557.9869 222.04462l46.173218 0l0 102.677155l-46.173218 0z" fill-rule="evenodd"/><path stroke="#595959" stroke-width="1.0" stroke-linejoin="round" stroke-linecap="butt" d="m557.9869 222.04462l46.173218 0l0 102.677155l-46.173218 0z" fill-rule="evenodd"/><path fill="#000000" d="m567.7525 301.46555l0.484375 0l0 4.234375l2.609375 0l0 0.421875l-3.09375 0l0 -4.65625zm5.058838 1.125q0.671875 0 1.03125 0.34375q0.375 0.34375 0.375 1.015625l0 2.171875l-0.453125 0l0 -0.546875q-0.15625 0.28125 -0.46875 0.4375q-0.3125 0.140625 -0.734375 0.140625q-0.578125 0 -0.9375 -0.28125q-0.34375 -0.28125 -0.34375 -0.734375q0 -0.453125 0.328125 -0.71875q0.328125 -0.28125 1.03125 -0.28125l1.109375 0l0 -0.203125q0 -0.453125 -0.25 -0.6875q-0.25 -0.234375 -0.734375 -0.234375q-0.34375 0 -0.65625 0.109375q-0.296875 0.109375 -0.515625 0.296875l-0.21875 -0.359375q0.265625 -0.21875 0.640625 -0.34375q0.375 -0.125 0.796875 -0.125zm-0.171875 3.1875q0.390625 0 0.671875 -0.171875q0.296875 -0.1875 0.4375 -0.53125l0 -0.578125l-1.09375 0q-0.90625 0 -0.90625 0.625q0 0.3125 0.234375 0.484375q0.234375 0.171875 0.65625 0.171875zm3.317749 -2.46875q0.171875 -0.359375 0.5 -0.53125q0.328125 -0.1875 0.8125 -0.1875l0 0.46875l-0.109375 -0.015625q-0.5625 0 -0.875 0.34375q-0.3125 0.34375 -0.3125 0.953125l0 1.78125l-0.46875 0l0 -3.5l0.453125 0l0 0.6875zm5.3793335 -0.6875l0 3.078125q0 0.890625 -0.4375 1.3125q-0.4375 0.4375 -1.3125 0.4375q-0.5 0 -0.9375 -0.15625q-0.421875 -0.140625 -0.703125 -0.390625l0.25 -0.359375q0.25 0.234375 0.609375 0.359375q0.359375 0.125 0.765625 0.125q0.65625 0 0.96875 -0.3125q0.3125 -0.3125 0.3125 -0.953125l0 -0.453125q-0.21875 0.328125 -0.578125 0.5q-0.34375 0.171875 -0.78125 0.171875q-0.484375 0 -0.890625 -0.203125q-0.40625 -0.21875 -0.640625 -0.609375q-0.21875 -0.390625 -0.21875 -0.890625q0 -0.484375 0.21875 -0.875q0.234375 -0.390625 0.625 -0.59375q0.40625 -0.21875 0.90625 -0.21875q0.453125 0 0.8125 0.1875q0.359375 0.171875 0.578125 0.515625l0 -0.671875l0.453125 0zm-1.796875 2.953125q0.375 0 0.6875 -0.15625q0.3125 -0.171875 0.46875 -0.46875q0.171875 -0.296875 0.171875 -0.671875q0 -0.359375 -0.171875 -0.640625q-0.15625 -0.296875 -0.46875 -0.453125q-0.296875 -0.171875 -0.6875 -0.171875q-0.375 0 -0.6875 0.15625q-0.296875 0.15625 -0.46875 0.453125q-0.171875 0.296875 -0.171875 0.65625q0 0.375 0.171875 0.671875q0.171875 0.296875 0.46875 0.46875q0.3125 0.15625 0.6875 0.15625zm6.159851 -1.0625l-2.921875 0q0.03125 0.546875 0.40625 0.890625q0.390625 0.328125 0.96875 0.328125q0.328125 0 0.59375 -0.109375q0.28125 -0.125 0.484375 -0.34375l0.265625 0.296875q-0.234375 0.28125 -0.59375 0.4375q-0.34375 0.140625 -0.765625 0.140625q-0.53125 0 -0.953125 -0.21875q-0.421875 -0.234375 -0.65625 -0.640625q-0.21875 -0.40625 -0.21875 -0.921875q0 -0.515625 0.21875 -0.921875q0.21875 -0.40625 0.609375 -0.625q0.390625 -0.234375 0.875 -0.234375q0.484375 0 0.875 0.234375q0.390625 0.21875 0.609375 0.625q0.21875 0.40625 0.21875 0.921875l-0.015625 0.140625zm-1.6875 -1.515625q-0.5 0 -0.84375 0.328125q-0.34375 0.328125 -0.390625 0.84375l2.484375 0q-0.046875 -0.515625 -0.390625 -0.84375q-0.34375 -0.328125 -0.859375 -0.328125z" fill-rule="nonzero"/><path fill="#000000" d="m571.6431 309.46555l0 4.65625l-0.40625 0l-3.0 -3.78125l0 3.78125l-0.484375 0l0 -4.65625l0.40625 0l3.0 3.78125l0 -3.78125l0.484375 0zm2.848938 4.6875q-0.515625 0 -0.921875 -0.21875q-0.40625 -0.234375 -0.640625 -0.640625q-0.21875 -0.40625 -0.21875 -0.921875q0 -0.515625 0.21875 -0.921875q0.234375 -0.40625 0.640625 -0.625q0.40625 -0.234375 0.921875 -0.234375q0.5 0 0.90625 0.234375q0.40625 0.21875 0.640625 0.625q0.234375 0.40625 0.234375 0.921875q0 0.515625 -0.234375 0.921875q-0.234375 0.40625 -0.640625 0.640625q-0.40625 0.21875 -0.90625 0.21875zm0 -0.421875q0.375 0 0.671875 -0.15625q0.296875 -0.171875 0.453125 -0.484375q0.171875 -0.3125 0.171875 -0.71875q0 -0.40625 -0.171875 -0.71875q-0.15625 -0.3125 -0.453125 -0.46875q-0.296875 -0.171875 -0.671875 -0.171875q-0.375 0 -0.671875 0.171875q-0.296875 0.15625 -0.46875 0.46875q-0.171875 0.3125 -0.171875 0.71875q0 0.40625 0.171875 0.71875q0.171875 0.3125 0.46875 0.484375q0.296875 0.15625 0.671875 0.15625zm5.939087 -4.546875l0 4.9375l-0.453125 0l0 -0.6875q-0.21875 0.34375 -0.578125 0.53125q-0.34375 0.1875 -0.78125 0.1875q-0.484375 0 -0.890625 -0.21875q-0.390625 -0.234375 -0.625 -0.640625q-0.21875 -0.40625 -0.21875 -0.921875q0 -0.515625 0.21875 -0.921875q0.234375 -0.40625 0.625 -0.625q0.40625 -0.234375 0.890625 -0.234375q0.421875 0 0.765625 0.1875q0.34375 0.171875 0.5625 0.515625l0 -2.109375l0.484375 0zm-1.765625 4.546875q0.359375 0 0.65625 -0.15625q0.296875 -0.171875 0.46875 -0.484375q0.171875 -0.3125 0.171875 -0.71875q0 -0.40625 -0.171875 -0.71875q-0.171875 -0.3125 -0.46875 -0.46875q-0.296875 -0.171875 -0.65625 -0.171875q-0.375 0 -0.671875 0.171875q-0.296875 0.15625 -0.46875 0.46875q-0.171875 0.3125 -0.171875 0.71875q0 0.40625 0.171875 0.71875q0.171875 0.3125 0.46875 0.484375q0.296875 0.15625 0.671875 0.15625zm6.1222534 -1.21875l-2.921875 0q0.03125 0.546875 0.40625 0.890625q0.390625 0.328125 0.96875 0.328125q0.328125 0 0.59375 -0.109375q0.28125 -0.125 0.484375 -0.34375l0.265625 0.296875q-0.234375 0.28125 -0.59375 0.4375q-0.34375 0.140625 -0.765625 0.140625q-0.53125 0 -0.953125 -0.21875q-0.421875 -0.234375 -0.65625 -0.640625q-0.21875 -0.40625 -0.21875 -0.921875q0 -0.515625 0.21875 -0.921875q0.21875 -0.40625 0.609375 -0.625q0.390625 -0.234375 0.875 -0.234375q0.484375 0 0.875 0.234375q0.390625 0.21875 0.609375 0.625q0.21875 0.40625 0.21875 0.921875l-0.015625 0.140625zm-1.6875 -1.515625q-0.5 0 -0.84375 0.328125q-0.34375 0.328125 -0.390625 0.84375l2.484375 0q-0.046875 -0.515625 -0.390625 -0.84375q-0.34375 -0.328125 -0.859375 -0.328125zm7.279846 2.703125l0 0.421875l-3.265625 0l0 -0.34375l1.9375 -1.890625q0.359375 -0.359375 0.484375 -0.625q0.140625 -0.265625 0.140625 -0.53125q0 -0.40625 -0.296875 -0.640625q-0.28125 -0.234375 -0.796875 -0.234375q-0.828125 0 -1.28125 0.53125l-0.328125 -0.296875q0.265625 -0.328125 0.6875 -0.5q0.421875 -0.171875 0.953125 -0.171875q0.71875 0 1.125 0.34375q0.421875 0.328125 0.421875 0.921875q0 0.359375 -0.15625 0.6875q-0.15625 0.328125 -0.609375 0.765625l-1.578125 1.5625l2.5625 0z" fill-rule="nonzero"/><path fill="#000000" fill-opacity="0.0" d="m454.17584 303.09186l21.984253 0" fill-rule="evenodd"/><path stroke="#595959" stroke-width="1.0" stroke-linejoin="round" stroke-linecap="butt" d="m460.17584 303.09186l9.984253 0" fill-rule="evenodd"/><path fill="#595959" stroke="#595959" stroke-width="1.0" stroke-linecap="butt" d="m460.17584 301.44012l-4.538086 1.6517334l4.538086 1.6517334z" fill-rule="evenodd"/><path fill="#595959" stroke="#595959" stroke-width="1.0" stroke-linecap="butt" d="m470.1601 304.7436l4.5381165 -1.6517334l-4.5381165 -1.6517334z" fill-rule="evenodd"/><path fill="#000000" fill-opacity="0.0" d="m621.9869 303.09186l21.984253 0" fill-rule="evenodd"/><path stroke="#595959" stroke-width="1.0" stroke-linejoin="round" stroke-linecap="butt" d="m627.9869 303.09186l9.984253 0" fill-rule="evenodd"/><path fill="#595959" stroke="#595959" stroke-width="1.0" stroke-linecap="butt" d="m627.9869 301.44012l-4.538086 1.6517334l4.538086 1.6517334z" fill-rule="evenodd"/><path fill="#595959" stroke="#595959" stroke-width="1.0" stroke-linecap="butt" d="m637.9711 304.7436l4.538086 -1.6517334l-4.538086 -1.6517334z" fill-rule="evenodd"/></g></svg>